<svg width="20" height="24" viewBox="0 0 20 24" fill="none" xmlns="http://www.w3.org/2000/svg">
<g clip-path="url(#clip0_184_72)">
<path d="M12.028 1.34576e-10H2.43601C2.12162 -3.33817e-06 1.81032 0.0621009 1.52 0.182746C1.22968 0.303391 0.966045 0.480201 0.744248 0.703021C0.52245 0.925841 0.346854 1.19028 0.227545 1.48116C0.108236 1.77203 0.0475638 2.08361 0.0490127 2.398L0.0370127 21.583C0.0355638 21.8974 0.0962361 22.209 0.215545 22.4998C0.334854 22.7907 0.51045 23.0552 0.732248 23.278C0.954046 23.5008 1.21768 23.6776 1.508 23.7983C1.79832 23.9189 2.10962 23.981 2.42401 23.981H16.824C17.139 23.9811 17.4508 23.9192 17.7418 23.7987C18.0328 23.6783 18.2972 23.5016 18.5199 23.2789C18.7426 23.0562 18.9193 22.7918 19.0397 22.5008C19.1602 22.2098 19.2221 21.8979 19.222 21.583V7.194L12.028 1.34576e-10ZM10.83 8.393V1.8L17.425 8.394H10.83V8.393Z" fill="#0077C7"/>
</g>
<defs>
<clipPath id="clip0_184_72">
<rect width="20" height="24" fill="white"/>
</clipPath>
</defs>
</svg>
