<svg width="24" height="20" viewBox="0 0 24 20" fill="none" xmlns="http://www.w3.org/2000/svg">
<path d="M21.6 2.4H12L9.6 0H2.4C2.08547 0.000260455 1.77408 0.0626036 1.48369 0.183455C1.1933 0.304306 0.929615 0.481289 0.707764 0.704255C0.485912 0.927221 0.310254 1.19178 0.19086 1.48278C0.0714654 1.77377 0.0106838 2.08547 0.012 2.4L0 16.8C0 17.4365 0.252856 18.047 0.702944 18.4971C1.15303 18.9471 1.76348 19.2 2.4 19.2H21.6C22.2365 19.2 22.847 18.9471 23.2971 18.4971C23.7471 18.047 24 17.4365 24 16.8V4.8C24 4.16348 23.7471 3.55303 23.2971 3.10294C22.847 2.65286 22.2365 2.4 21.6 2.4Z" fill="#0077C7"/>
</svg>
